HIERARCHY
ROOT Hips
{
	OFFSET 0.000000 0.000000 0.000000 
	CHANNELS 6 Xposition Yposition Zposition Yrotation Xrotation Zrotation
	JOINT Spine
	{
		OFFSET 0.000000 0.072080 0.012321 
		CHANNELS 3 Xrotation Yrotation Zrotation
		JOINT Spine1
		{
			OFFSET 0.000000 0.126984 -0.001294 
			CHANNELS 3 Xrotation Yrotation Zrotation
			JOINT Spine2
			{
				OFFSET 0.000000 0.106559 -0.010096 
				CHANNELS 3 Xrotation Yrotation Zrotation
				JOINT Neck
				{
					OFFSET 0.000000 0.108417 -0.034017 
					CHANNELS 3 Xrotation Yrotation Zrotation
					JOINT Neck1
					{
						OFFSET 0.000000 0.033906 0.007241 
						CHANNELS 3 Xrotation Yrotation Zrotation
						JOINT Head
						{
							OFFSET 0.000000 0.031458 0.006707 
							CHANNELS 3 Xrotation Yrotation Zrotation
							End Site
							{
								OFFSET 0.000000 0.179920 0.000962 
							}
						}
					}
				}
				JOINT LeftShoulder
				{
					OFFSET 0.048002 0.079586 -0.029634 
					CHANNELS 3 Zrotation Xrotation Yrotation
					JOINT LeftArm
					{
						OFFSET 0.096243 -0.008695 -0.014012 
						CHANNELS 3 Zrotation Xrotation Yrotation
						JOINT LeftForeArm
						{
							OFFSET 0.216305 0.000000 0.000000 
							CHANNELS 3 Xrotation Zrotation Yrotation
							JOINT LeftHand
							{
								OFFSET 0.217764 0.000000 0.000000 
								CHANNELS 3 Zrotation Yrotation Xrotation
								JOINT LeftHandThumb1
								{
									OFFSET 0.018582 -0.007835 0.020476 
									CHANNELS 3 Zrotation Xrotation Yrotation
									JOINT LeftHandThumb2
									{
										OFFSET 0.026269 -0.007835 0.022186 
										CHANNELS 3 Zrotation Xrotation Yrotation
										JOINT LeftHandThumb3
										{
											OFFSET 0.035170 -0.010504 0.017018 
											CHANNELS 3 Zrotation Xrotation Yrotation
											End Site
											{
												OFFSET 0.020312 -0.007813 0.007813 
											}
										}
									}
								}
								JOINT LeftHandMiddle1
								{
									OFFSET 0.081749 0.004803 0.003358 
									CHANNELS 3 Zrotation Xrotation Yrotation
									JOINT LeftHandMiddle2
									{
										OFFSET 0.045251 0.000000 0.000000 
										CHANNELS 3 Zrotation Xrotation Yrotation
										JOINT LeftHandMiddle3
										{
											OFFSET 0.029009 0.000000 0.000000 
											CHANNELS 3 Zrotation Xrotation Yrotation
											End Site
											{
												OFFSET 0.017969 0.000000 0.000000 
											}
										}
									}
								}
								JOINT LeftHandIndex1
								{
									OFFSET 0.081207 0.004803 0.021137 
									CHANNELS 3 Zrotation Xrotation Yrotation
									JOINT LeftHandIndex2
									{
										OFFSET 0.043354 0.000000 0.000000 
										CHANNELS 3 Zrotation Xrotation Yrotation
										JOINT LeftHandIndex3
										{
											OFFSET 0.026493 0.000000 0.000000 
											CHANNELS 3 Zrotation Xrotation Yrotation
											End Site
											{
												OFFSET 0.019531 0.000000 0.000000 
											}
										}
									}
								}
								JOINT LeftHandRing1
								{
									OFFSET 0.080666 0.002509 -0.014652 
									CHANNELS 3 Zrotation Xrotation Yrotation
									JOINT LeftHandRing2
									{
										OFFSET 0.042541 0.000000 0.000000 
										CHANNELS 3 Zrotation Xrotation Yrotation
										JOINT LeftHandRing3
										{
											OFFSET 0.029009 0.000000 0.000000 
											CHANNELS 3 Zrotation Xrotation Yrotation
											End Site
											{
												OFFSET 0.015625 0.000000 0.000000 
											}
										}
									}
								}
								JOINT LeftHandPinky1
								{
									OFFSET 0.078227 -0.000612 -0.030993 
									CHANNELS 3 Zrotation Xrotation Yrotation
									JOINT LeftHandPinky2
									{
										OFFSET 0.028721 0.000000 0.000000 
										CHANNELS 3 Zrotation Xrotation Yrotation
										JOINT LeftHandPinky3
										{
											OFFSET 0.021963 0.000000 0.000000 
											CHANNELS 3 Zrotation Xrotation Yrotation
											End Site
											{
												OFFSET 0.022656 0.000000 0.000000 
											}
										}
									}
								}
							}
						}
					}
				}
				JOINT RightShoulder
				{
					OFFSET -0.047970 0.079586 -0.029634 
					CHANNELS 3 Zrotation Xrotation Yrotation
					JOINT RightArm
					{
						OFFSET -0.096274 -0.008695 -0.014012 
						CHANNELS 3 Zrotation Xrotation Yrotation
						JOINT RightForeArm
						{
							OFFSET -0.216305 0.000000 0.000000 
							CHANNELS 3 Xrotation Zrotation Yrotation
							JOINT RightHand
							{
								OFFSET -0.217764 0.000000 0.000000 
								CHANNELS 3 Zrotation Yrotation Xrotation
								JOINT RightHandThumb1
								{
									OFFSET -0.019670 -0.007318 0.019638 
									CHANNELS 3 Zrotation Xrotation Yrotation
									JOINT RightHandThumb2
									{
										OFFSET -0.025498 -0.008492 0.023179 
										CHANNELS 3 Zrotation Xrotation Yrotation
										JOINT RightHandThumb3
										{
											OFFSET -0.034504 -0.010705 0.016680 
											CHANNELS 3 Zrotation Xrotation Yrotation
											End Site
											{
												OFFSET -0.020312 -0.007813 0.007813 
											}
										}
									}
								}
								JOINT RightHandIndex1
								{
									OFFSET -0.081770 0.003825 0.021187 
									CHANNELS 3 Zrotation Xrotation Yrotation
									JOINT RightHandIndex2
									{
										OFFSET -0.042006 0.000000 0.000000 
										CHANNELS 3 Zrotation Xrotation Yrotation
										JOINT RightHandIndex3
										{
											OFFSET -0.026449 0.000000 0.000000 
											CHANNELS 3 Zrotation Xrotation Yrotation
											End Site
											{
												OFFSET -0.020312 0.000000 0.000000 
											}
										}
									}
								}
								JOINT RightHandMiddle1
								{
									OFFSET -0.084059 0.003825 0.003342 
									CHANNELS 3 Zrotation Xrotation Yrotation
									JOINT RightHandMiddle2
									{
										OFFSET -0.043881 0.000000 0.000000 
										CHANNELS 3 Zrotation Xrotation Yrotation
										JOINT RightHandMiddle3
										{
											OFFSET -0.029191 0.000000 0.000000 
											CHANNELS 3 Zrotation Xrotation Yrotation
											End Site
											{
												OFFSET -0.017969 0.000000 0.000000 
											}
										}
									}
								}
								JOINT RightHandRing1
								{
									OFFSET -0.081798 0.003030 -0.015127 
									CHANNELS 3 Zrotation Xrotation Yrotation
									JOINT RightHandRing2
									{
										OFFSET -0.042198 0.000000 0.000000 
										CHANNELS 3 Zrotation Xrotation Yrotation
										JOINT RightHandRing3
										{
											OFFSET -0.026497 0.000000 0.000000 
											CHANNELS 3 Zrotation Xrotation Yrotation
											End Site
											{
												OFFSET -0.017188 0.000000 0.000000 
											}
										}
									}
								}
								JOINT RightHandPinky1
								{
									OFFSET -0.077902 -0.000930 -0.030891 
									CHANNELS 3 Zrotation Xrotation Yrotation
									JOINT RightHandPinky2
									{
										OFFSET -0.028538 0.000000 0.000000 
										CHANNELS 3 Zrotation Xrotation Yrotation
										JOINT RightHandPinky3
										{
											OFFSET -0.021734 0.000000 0.000000 
											CHANNELS 3 Zrotation Xrotation Yrotation
											End Site
											{
												OFFSET -0.022656 0.000000 0.000000 
											}
										}
									}
								}
							}
						}
					}
				}
			}
		}
	}
	JOINT LeftUpLeg
	{
		OFFSET 0.075264 -0.025573 0.000000 
		CHANNELS 3 Xrotation Yrotation Zrotation
		JOINT LeftLeg
		{
			OFFSET 0.000000 -0.326016 -0.013516 
			CHANNELS 3 Xrotation Yrotation Zrotation
			JOINT LeftFoot
			{
				OFFSET 0.000098 -0.306172 -0.006623 
				CHANNELS 3 Xrotation Yrotation Zrotation
				JOINT LeftToeBase
				{
					OFFSET -0.001432 -0.095259 0.064705 
					CHANNELS 3 Xrotation Yrotation Zrotation
					End Site
					{
						OFFSET 0.000000 0.000000 0.079438 
					}
				}
			}
		}
	}
	JOINT RightUpLeg
	{
		OFFSET -0.075264 -0.025573 0.000000 
		CHANNELS 3 Xrotation Yrotation Zrotation
		JOINT RightLeg
		{
			OFFSET 0.000000 -0.326016 -0.013516 
			CHANNELS 3 Xrotation Yrotation Zrotation
			JOINT RightFoot
			{
				OFFSET 0.000098 -0.306172 -0.006623 
				CHANNELS 3 Xrotation Yrotation Zrotation
				JOINT RightToeBase
				{
					OFFSET -0.001432 -0.095259 0.064705 
					CHANNELS 3 Xrotation Yrotation Zrotation
					End Site
					{
						OFFSET 0.000025 0.000000 0.079438 
					}
				}
			}
		}
	}
}
MOTION
Frames: 5
Frame Time: 0.033333
-0.036807 0.649109 1.185809 -1.290900 5.384200 18.398399 11.212700 -12.610500 -0.933400 0.247300 -3.320400 -0.400300 0.258700 -3.297900 -0.404200 -6.998700 -1.778200 0.057800 -0.000000 0.000000 -0.000000 -13.218300 -12.347900 3.484800 -18.320299 2.972900 -8.092000 -34.519501 -9.645200 -3.380400 0.000000 0.000000 -81.507401 15.926100 -9.595900 13.753200 -4.439500 -3.853400 5.135700 -3.503800 9.866900 14.638200 10.333400 -18.487101 -25.231800 -65.164299 0.009500 -6.597000 -76.382103 0.011500 -0.014600 -59.542801 0.007400 -0.013000 -62.536499 2.220700 -7.963800 -65.167297 0.008700 -0.013700 -39.313499 0.003400 -0.009500 -79.079399 0.012900 -8.512100 -82.277199 0.013000 -0.014900 -48.522202 0.005100 -0.011300 -83.903999 -0.246000 -6.070100 -85.744797 0.013900 -0.015000 -75.821899 0.011300 -0.014600 13.757200 0.227200 -2.392700 66.936203 19.561600 -36.731899 0.000000 -0.000000 58.669601 3.799800 -2.556400 13.364900 -13.946400 -2.053500 -3.992300 14.971600 2.433900 -5.574500 -22.297300 -12.760600 29.467400 16.294701 0.770400 15.870800 71.016403 0.005300 0.007500 22.534599 0.000600 0.003000 36.982399 0.001700 8.381700 58.042999 0.003700 0.006700 25.627001 0.000800 0.003400 40.507702 0.002100 7.050400 68.878601 0.005100 0.007400 20.818800 0.000500 0.002800 46.335800 -1.280600 5.032000 49.656799 0.002800 0.006000 25.872700 0.000800 0.003500 -6.928900 2.590400 4.276600 34.261299 -0.222700 3.634500 -15.635600 0.146800 -23.784901 -8.913900 0.030800 -2.035400 -60.553902 -5.619600 0.949100 107.310997 -2.441900 0.356500 -5.073100 1.434600 0.479100 -1.132200 0.000000 0.000000 
-0.068305 0.663425 1.290853 -6.484600 7.022100 15.652200 10.489800 -12.724300 1.472600 -0.025600 -3.485300 -0.011300 -0.025100 -3.476900 -0.013200 -6.885200 -1.490000 0.129900 -0.000000 0.000000 -0.000000 -11.025500 -8.908600 3.323900 -17.800400 2.486200 -6.367200 -30.831100 -11.580900 -1.243800 -0.000000 -0.000000 -92.322197 18.438801 -8.682100 15.342100 -4.439500 -3.853300 5.135700 -3.705200 9.860700 17.884399 10.946100 -17.798300 -22.044800 -68.324898 0.010200 -6.579000 -79.606400 0.012300 -0.014800 -62.723701 0.008100 -0.013400 -65.689003 2.568900 -7.889600 -68.363602 0.009500 -0.014000 -42.495602 0.003900 -0.010200 -82.225700 0.013700 -8.488600 -85.528999 0.013900 -0.015000 -51.702400 0.005700 -0.011800 -87.068100 -0.108300 -6.057900 -88.947998 0.014800 -0.015000 -79.003700 0.012200 -0.014700 13.170800 0.292600 -2.032800 65.862099 22.238199 -43.190498 0.000000 -0.000000 64.098503 5.432600 -3.116200 13.883300 -13.946400 -2.053500 -3.992300 15.189700 2.412000 -4.577900 -21.901501 -12.977300 30.529400 15.301300 0.493300 15.926700 69.982300 0.005200 0.007400 21.500500 0.000500 0.002900 35.959702 0.001600 8.370900 56.987099 0.003600 0.006600 24.592699 0.000700 0.003300 39.481701 0.002000 7.041200 67.828903 0.004900 0.007300 19.784401 0.000500 0.002700 45.305698 -1.348600 5.025600 48.620300 0.002700 0.005900 24.838699 0.000700 0.003300 2.071400 4.979400 7.387800 28.879801 1.244800 3.328200 -2.243700 -0.840700 -23.323700 -14.286200 0.000000 -0.000000 -64.829697 -4.832400 5.062700 92.390602 -6.489700 1.204400 -7.079900 1.408300 2.294700 -1.510800 0.000000 -0.000000 
-0.098215 0.669019 1.391042 -10.499200 8.609700 14.907600 10.009500 -13.449000 2.072100 -0.636000 -3.696600 0.247700 -0.636600 -3.692300 0.266000 -6.942600 -1.166800 0.078500 -0.000000 0.000000 -0.000000 -9.773100 -6.072600 2.869900 -18.227100 2.019300 -4.374400 -27.231300 -15.384400 0.396800 0.000000 0.000000 -100.277199 18.398399 -8.673600 17.986300 -4.439500 -3.853300 5.135700 -3.935200 9.832700 20.122700 11.235500 -17.335400 -19.917101 -70.484901 0.010800 -6.566600 -81.810097 0.012900 -0.014900 -64.897697 0.008700 -0.013600 -67.844101 2.807000 -7.838900 -70.548103 0.010000 -0.014200 -44.670399 0.004300 -0.010600 -84.375999 0.014300 -8.472500 -87.751404 0.014400 -0.015000 -53.875801 0.006200 -0.012200 -89.230598 -0.014100 -6.049800 -91.137100 0.015300 -0.015000 -81.178299 0.012700 -0.014900 13.241600 0.365900 -1.674600 64.207901 23.320200 -47.778099 0.000000 -0.000000 69.128403 5.617500 -3.260100 13.629000 -13.946400 -2.053500 -3.992300 15.202800 2.412000 -4.636300 -21.906900 -12.969200 30.478600 15.351100 0.508200 15.929000 70.033897 0.005200 0.007400 21.552200 0.000600 0.002900 36.010799 0.001600 8.376400 57.039398 0.003600 0.006600 24.644600 0.000700 0.003300 39.532902 0.002000 7.045900 67.881203 0.004900 0.007300 19.836201 0.000500 0.002700 45.357201 -1.332400 5.028700 48.670898 0.002700 0.005900 24.890400 0.000700 0.003300 6.982700 6.435200 8.234100 29.357500 1.491500 2.301600 8.727600 -0.974700 -21.560699 -15.139200 0.000000 -0.000000 -67.118301 -3.722000 6.535000 75.146698 -7.024800 2.044300 -6.992300 1.532900 2.006000 -1.271000 0.000000 -0.000000 
-0.133656 0.680713 1.495029 -11.850300 9.656600 16.283400 7.575900 -14.501400 1.041600 -0.538100 -3.920100 0.149800 -0.536100 -3.913300 0.156000 -7.080600 -0.997200 -0.040100 -0.000000 0.000000 -0.000000 -9.994100 -5.249400 2.633000 -18.708401 1.854200 -3.585000 -27.269199 -16.781799 1.511800 0.000000 -0.000000 -101.720901 18.601601 -9.829100 19.657900 -4.439500 -3.853400 5.135600 -4.021000 9.818900 20.795401 11.299500 -17.200001 -19.289499 -71.131104 0.010900 -6.564000 -82.469299 0.013100 -0.014900 -65.548203 0.008800 -0.013700 -68.488899 2.874300 -7.824900 -71.202202 0.010200 -0.014200 -45.321098 0.004500 -0.010700 -85.019203 0.014400 -8.469200 -88.416298 0.014600 -0.015000 -54.526199 0.006300 -0.012200 -89.877602 0.015800 -6.047800 -91.791901 0.015500 -0.015000 -81.828903 0.012900 -0.014900 13.708600 0.361600 -1.735600 64.178101 21.319401 -47.127602 0.000000 -0.000000 67.372299 3.732700 -3.282600 11.900000 -13.946400 -2.053500 -3.992300 15.167700 2.419500 -5.255600 -22.084299 -12.847100 29.862200 15.937700 0.675500 15.916000 70.643600 0.005300 0.007500 22.161900 0.000600 0.003000 36.614101 0.001700 8.402200 57.660500 0.003700 0.006700 25.255899 0.000800 0.003400 40.138100 0.002000 7.067700 68.499298 0.005000 0.007400 20.446899 0.000500 0.002800 45.964901 -1.242100 5.044300 49.277302 0.002800 0.006000 25.500401 0.000800 0.003400 11.678400 5.339700 6.878000 30.118200 2.073300 2.503800 8.906500 -0.807100 -21.454800 -4.942700 0.000000 -0.000000 -64.259102 -2.291100 5.218700 53.464699 -4.145700 2.391900 -7.078900 1.783000 -0.913600 -1.249000 0.000000 0.000000 
-0.169637 0.684766 1.597792 -11.887900 9.466200 18.093000 5.447700 -14.407600 -0.324200 -0.182900 -3.844700 -0.196200 -0.176600 -3.831600 -0.207800 -7.057500 -1.096200 -0.176000 -0.000000 0.000000 -0.000000 -10.407300 -6.662000 2.881600 -18.441700 2.101100 -4.580600 -29.465000 -14.103700 2.421700 -0.000000 -0.000000 -98.413399 19.899599 -9.645400 18.968800 -4.439500 -3.853300 5.135700 -3.981700 9.823900 20.215700 11.207800 -17.326700 -19.847900 -70.568497 0.010800 -6.582400 -81.895203 0.012900 -0.014900 -64.983200 0.008700 -0.013600 -67.926697 2.758000 -7.853400 -70.641197 0.010100 -0.014200 -44.754902 0.004400 -0.010600 -84.459099 0.014300 -8.492800 -87.837303 0.014500 -0.015000 -53.961700 0.006200 -0.012200 -89.314499 0.015700 -6.053500 -91.219299 0.015400 -0.015000 -81.262703 0.012800 -0.014800 14.171800 0.134400 -2.850500 65.575401 18.665800 -44.653301 -0.000000 -0.000000 64.163803 3.070600 -3.524300 11.577200 -13.946400 -2.053500 -3.992300 15.130600 2.429500 -6.259600 -22.358700 -12.645500 28.866800 16.888500 0.946700 15.895200 71.631798 0.005400 0.007500 23.150101 0.000600 0.003100 37.591801 0.001800 8.444000 58.667099 0.003800 0.006800 26.246500 0.000800 0.003500 41.118900 0.002100 7.103000 69.501099 0.005100 0.007400 21.436701 0.000500 0.002900 46.949799 -1.095800 5.069600 50.260101 0.002900 0.006100 26.489000 0.000800 0.003500 13.076400 3.989900 6.723700 37.922401 2.480600 3.356400 5.154700 1.326900 -24.172100 8.340600 -0.000000 0.000000 -59.541500 -2.141600 2.662400 35.356899 0.755600 2.797900 -8.255000 2.073200 -8.466000 -0.192200 -0.000000 -0.000000 
